<?xml version="1.0" encoding="UTF-8"?>
<svg id="Layer_1" data-name="Layer 1" xmlns="http://www.w3.org/2000/svg" version="1.1" viewBox="0 0 328.6 53.6">
  <defs>
    <style>
      .cls-1 {
        fill: #0f100c;
        stroke-width: 0px;
      }

      .cls-2 {
        fill: #000;
        font-family: HelveticaNeue-CondensedBlack, 'Helvetica Neue';
        font-size: 13.8px;
        font-weight: 800;
      }
    </style>
  </defs>
  <path class="cls-1" d="M83.5,12.9c0-4.4,3.3-7.4,7.6-7.4,2.5,0,4.8,1.3,5.9,3.5l-2.6,1.3c-.6-1.2-1.9-2-3.3-2.1-2.4,0-4.5,1.9-4.5,4.4,0,0,0,.2,0,.3-.1,2.4,1.8,4.5,4.2,4.7,0,0,.2,0,.3,0,1.4,0,2.7-.8,3.3-2.1l2.6,1.3c-1.1,2.2-3.5,3.6-5.9,3.5-4.3,0-7.6-3-7.6-7.4Z"/>
  <path class="cls-1" d="M108.6,20l-.9-2.4h-6.1l-.9,2.4h-3.4l5.5-14.2h3.8l5.5,14.2h-3.4ZM104.6,8.8l-2.2,6.1h4.4l-2.2-6.1Z"/>
  <path class="cls-1" d="M112.2,18l1.7-2.4c1.2,1.2,2.8,1.9,4.5,1.9,1.7,0,2.5-.7,2.5-1.6,0-2.5-8.2-.7-8.2-6.1s2-4.3,5.4-4.3c2,0,4,.6,5.5,2l-1.7,2.3c-1.1-1-2.6-1.6-4.1-1.6-1.3,0-2,.6-2,1.4,0,2.2,8.2.7,8.2,6s-1.9,4.6-5.7,4.6c-2.2,0-4.4-.7-6-2.3Z"/>
  <path class="cls-1" d="M129,20v-11.6h-4.1v-2.7h11.4v2.7h-4.1v11.6h-3.1Z"/>
  <path class="cls-1" d="M138,20V5.8h3.1v11.6h6v2.7h-9.1Z"/>
  <path class="cls-1" d="M149.2,20V5.8h10.1v2.7h-7v3h6.9v2.7h-6.9v3.2h7v2.7h-10.1Z"/>
  <path class="cls-1" d="M166.4,12.9c0-4.4,3.3-7.4,7.6-7.4,2.5,0,4.8,1.3,5.9,3.5l-2.6,1.3c-.6-1.2-1.9-2-3.3-2.1-2.4,0-4.5,1.9-4.5,4.4,0,0,0,.2,0,.3-.1,2.4,1.8,4.5,4.2,4.7,0,0,.2,0,.3,0,1.4,0,2.7-.8,3.3-2.1l2.6,1.3c-1.2,2.2-3.5,3.6-5.9,3.5-4.3,0-7.6-3-7.6-7.4Z"/>
  <path class="cls-1" d="M181.1,12.9c0-4.1,3.3-7.4,7.4-7.4,4.1,0,7.4,3.3,7.4,7.4,0,4.1-3.3,7.4-7.4,7.4-4.1,0-7.4-3.3-7.4-7.4ZM192.8,12.9c0-2.7-1.7-4.7-4.3-4.7s-4.3,2-4.3,4.7,1.7,4.7,4.3,4.7,4.3-2,4.3-4.7Z"/>
  <path class="cls-1" d="M207.9,20l-6.8-9.3v9.3h-3V5.8h3.1l6.6,8.9V5.8h3v14.2h-2.9Z"/>
  <path class="cls-1" d="M223.5,20l-6.8-9.3v9.3h-3V5.8h3.1l6.6,8.9V5.8h3v14.2h-2.9Z"/>
  <path class="cls-1" d="M228.5,12.9c0-4.1,3.3-7.4,7.4-7.4s7.4,3.3,7.4,7.4c-.1,4.1-3.6,7.3-7.7,7.2-3.9-.1-7.1-3.3-7.2-7.2h0ZM240.3,12.9c0-2.7-1.7-4.7-4.3-4.7s-4.4,2-4.4,4.7,1.7,4.7,4.3,4.7,4.3-2,4.3-4.7h0Z"/>
  <path class="cls-1" d="M245.4,20V5.8h3v11.6h6v2.7h-9.1Z"/>
  <path class="cls-1" d="M256.4,20V5.8h3.1v11.6h6v2.7h-9.1Z"/>
  <path class="cls-1" d="M268.8,20v-5.8l-5.5-8.4h3.5l3.5,5.7,3.5-5.7h3.4l-5.4,8.4v5.8h-3Z"/>
  <path class="cls-1" d="M100.3,26.8h-7.5v20.2h-1.3v-20.2h-7.5v-1.2h16.4v1.1Z"/>
  <path class="cls-1" d="M119.7,36.5c0,6.6-4.1,11-10.2,11s-10.1-4.5-10.1-11.2,4.1-11.2,10.1-11.2,10.2,4.6,10.2,11.3ZM100.8,36.3c0,6,3.5,10.1,8.8,10.1s8.9-4,8.9-9.9-3.6-10.1-8.9-10.1-8.8,4.1-8.8,9.9Z"/>
  <path class="cls-1" d="M130.3,25.7c2.2,0,3.5.3,4.5,1,1.6,1.1,2.5,3,2.4,4.9,0,3.7-2.5,6-6.6,6h-7.4v9.4h-1.3v-21.3h8.3ZM123.3,36.5h6.6c2,0,2.9-.1,3.8-.7,1.5-.8,2.3-2.4,2.2-4.1,0-1.6-.6-3.1-1.9-4-.9-.6-1.8-.8-4-.8h-6.8v9.6Z"/>
  <path class="cls-1" d="M151.8,25.7c3,0,5,.7,6.7,2.2,1.9,1.8,3,4.7,3,8.1s-1,6.6-3,8.6c-1.7,1.7-3.6,2.4-6.7,2.4h-7.2v-21.3h7.2ZM145.9,45.8h5.5c3.4,0,5.2-.7,6.8-2.7,1.4-1.7,2-4,2-7s-1-6.1-3-7.7c-1.4-1.1-3-1.6-5.4-1.6h-5.8v19Z"/>
  <path class="cls-1" d="M183.9,36.5c0,6.6-4.1,11-10.2,11s-10.1-4.5-10.1-11.2,4.1-11.2,10.1-11.2,10.2,4.6,10.2,11.3ZM165,36.3c0,6,3.5,10.1,8.8,10.1s8.9-4,8.9-9.9-3.6-10.1-8.9-10.1-8.8,4.1-8.8,9.9Z"/>
  <path class="cls-1" d="M195.8,47.4c-5.9,0-9.8-4.4-9.8-11s4-11.2,9.9-11.2,8.3,2.9,8.8,6.9h-1.3c-.8-3.6-3.7-5.8-7.6-5.8s-8.6,4-8.6,10,3.4,10,8.5,10,7.4-2.9,8-7.6h1.2c-.4,5.2-4.1,8.7-9.2,8.7Z"/>
  <path class="cls-1" d="M221.3,26.8h-7.5v20.2h-1.3v-20.2h-7.5v-1.2h16.4v1.1Z"/>
  <path class="cls-1" d="M240.6,36.5c0,6.6-4.1,11-10.2,11s-10.1-4.5-10.1-11.2,4.1-11.2,10.1-11.2,10.2,4.6,10.2,11.3ZM221.7,36.3c0,6,3.5,10.1,8.8,10.1s8.9-4,8.9-10-3.6-10.1-8.9-10.1-8.8,4.1-8.8,10Z"/>
  <path class="cls-1" d="M251.6,25.7c2.9,0,4.5.6,5.7,2.2.7,1,1.1,2.2,1.1,3.5,0,2.8-1.7,4.8-4.5,5.3,1.7.3,2.6.7,3.3,1.8s.7,1.6.9,5c0,1.7.3,2.9.5,3.3l.2.3h-1.4c-.3-.4-.4-1.1-.4-3.3-.2-3.6-.4-4.6-1.5-5.4-1-.8-2.2-1.1-4.6-1.1h-6.6v9.8h-1.3v-21.3h8.8ZM244.1,36.1h6.4c2.1,0,3.5-.2,4.5-.8,1.3-.8,2.1-2.3,2-3.9.1-1.5-.6-3-1.9-3.8-.9-.6-2.1-.8-4-.8h-7v9.3Z"/>
  <path class="cls-1" d="M275,31.7c-.2-2.3-1-3.6-2.7-4.5-1.3-.6-2.7-.9-4.1-.9-3.8,0-6,1.7-6,4.5,0,1.2.5,2.3,1.5,3,.9.5,1.8.9,4.4,1.5l1.6.3c2.9.7,3.9,1,4.9,1.7,1.4.9,2.2,2.4,2.1,4.1,0,3.8-3,6-8,6s-8.4-2.6-8.4-7.5h1.2c0,4.2,2.6,6.4,7.3,6.4s6.7-1.9,6.7-4.9c0-1.5-.8-2.9-2.2-3.5-1-.5-1.6-.7-5-1.4-3.4-.8-4.3-1.1-5.4-1.8-1.3-.9-2-2.3-1.9-3.9,0-3.5,2.8-5.6,7.3-5.6s5.2.9,6.6,2.5c.9,1.1,1.4,2.5,1.4,4h-1.2Z"/>
  <rect class="cls-1" x="5.6" y="45.4" width="68.5" height="1.9"/>
  <rect class="cls-1" x="5.6" y="5.2" width="68.5" height="1.9"/>
  <path class="cls-1" d="M29,15.1c-.5-.1-1-.3-1.5-.6-.3-.2-.5-.5-.6-.9-.5-.3-1-.7-1.4-1.1-.4-.4-.6-.7-.6-1s0-.3.3-.3c.2,0,.3,0,.4.2.2.2.5.3.8.3.6.1,1.3.2,1.9.1h2l4.5-.2c.7,0,1.3,0,2,.1.4,0,.7.3,1,.6.2.3.3.8.3,1.2,0,.3,0,.7.2,1,0,.3.3.5.5.6v-2.9c-.3-.2-.5-.4-.7-.7-.1-.3-.2-.6-.2-.9,0-.5.2-1,.6-1.3.4-.3.9-.5,1.4-.5.5,0,1,.1,1.4.5.4.3.6.8.6,1.2,0,.3,0,.7-.3,1-.2.3-.4.6-.7.8v2.9c.2,0,.4-.2.4-.4,0-.2.1-.5.1-.7,0-.3,0-.6.2-.9,0-.3.2-.5.5-.7.3-.3.7-.5,1.1-.6.6-.1,1.2-.2,1.8-.2h.7c.3,0,.7,0,1.4,0l4.5.3c.5,0,1.1,0,1.6-.1.4,0,.8-.2,1.1-.3,0,0,.2,0,.3,0,.1,0,.2.1.2.5,0,.3,0,.6-.3.9-.5.4-1,.7-1.5.9h-.2c0,.4-.1.7-.3.9-.4.3-.8.6-1.3.7,0,.3-.2.6-.3.8-.1.2-.3.3-.5.4-.2,0-.4.2-.6.2-.3,0-.6.1-.9.3,0,.4-.3.7-.7.9-.6.3-1.2.4-1.9.5-.2.4-.5.6-.8.8-.5.2-1,.2-1.6.1l-3-.4v5.6c.4,0,.8-.1,1.1-.2.2,0,.5-.1.7-.2.3-.2.6-.3.9-.5.3-.2.5-.4.5-.5s-.2-.2-.6-.3c-.4-.2-.8-.4-1.2-.6-.3-.2-.5-.5-.5-.9,0-.3.2-.6.7-.9.5-.3,1.1-.4,1.7-.3.7,0,1.4.2,1.9.7.5.5.8,1.2.7,1.9,0,.7-.2,1.5-.7,2-.7.7-1.4,1.3-2.3,1.8.2.3.3.6.4.9,0,.3.1.6.1.8,0,.6-.1,1.1-.4,1.6-.3.5-.6.8-1.1,1.1.4.4.6,1,.6,1.6,0,.4-.1.8-.3,1.1-.2.4-.5.7-.8,1,.4.4.5.6.6.8,0,.4,0,.9-.1,1.3-.1.3-.2.6-.4.9-.1.3-.3.5-.6.7-.2.2-.5.3-.7.3-.2,0-.4,0-.4-.3,0-.1,0-.2.1-.4.2-.3.3-.6.3-.9,0-.3-.2-.7-.5-.8v3.1h0c0,.4,0,.8,0,1.2,0,.1-.2.2-.4.2s-.4,0-.5-.3c0-.4-.1-.8-.1-1.2h0c0,0,0-3.5,0-3.5h-.2c-.2.3-.3.7-.3,1.1,0,.3,0,.6.2.9,0,.1,0,.3,0,.4,0,.2-.1.3-.4.3-.4,0-.8-.3-1-.7-.3-.4-.4-.8-.4-1.3,0-.5.1-1,.3-1.5-.4-.3-.7-.6-1-1-.2-.3-.3-.7-.3-1.2,0-.3,0-.6.1-.8.1-.4.3-.8.6-1.2-.5-.3-.9-.7-1.3-1.1-.3-.4-.5-.9-.4-1.4,0-.4,0-.7.2-1.1.1-.4.3-.7.5-1h0c-.9-.4-1.7-.9-2.3-1.7-.4-.5-.6-1.2-.6-1.9,0-.8.3-1.5.9-2,.6-.6,1.4-.9,2.2-.8.5,0,1,.1,1.4.4.4.2.6.6.6,1,0,.4-.1.8-.4,1.1-.4.2-.8.4-1.2.5-.4,0-.6.2-.6.3,0,.3.3.6,1,.8.7.2,1.4.3,2.2.4v-5.5c0,0-3,.3-3,.3-.5,0-1.1,0-1.6-.2-.4-.2-.6-.6-.8-1-.7,0-1.5-.1-2.1-.4-.4-.2-.6-.7-.6-1.1h0c-.4-.1-.9-.3-1.3-.6-.5-.3-.7-1-.6-1.2ZM30.1,12.5h-.6c-.4,0-1.4,0-3.2,0,.4.4.9.6,1.4.8.9.1,1.9.2,2.9.2h4.7c.4,0,.8,0,1.1.4.2.3.4.7.4,1.1,0,.5.3,1,.5,1.4.4.4.9.7,1.4.7v-1c-.4-.1-.8-.4-1-.7-.2-.4-.3-.8-.3-1.2,0-.3-.1-.5-.2-.8,0-.2-.2-.3-.3-.4-.3-.2-.7-.3-1.1-.3-.5,0-1.4,0-2.7,0h-3ZM33.9,14.1h-2.9c-.3,0-.6,0-.9,0s-.7,0-1.2,0h-.6c.3.3.7.6,1.1.7.7.1,1.4.2,2,.1h5c0-.3-.2-.5-.3-.6-.2-.1-.5-.2-.7-.2h-1.4ZM35.4,15.4h-5.6c.2.4.5.6.9.7.8.1,1.6.2,2.3.2l3.4-.3-.2-.6c-.3,0-.7,0-1,0ZM35.4,17.7c.9,0,1.7-.1,2.3-.2l-.7-.8-5.1.5c.1.2.3.4.6.5.4.1.8.1,1.2.1.2,0,.8,0,1.7,0h0ZM34.2,21.8c-.3.4-.5.8-.5,1.3,0,.5.1,1,.4,1.4.3.4.7.7,1.1.9.5.2,1,.4,1.5.6.5.1,1.2.3,2,.5.9.2,1.8.4,2.7.8.5.2.9.6.9,1.2,0,.3,0,.6-.3.9-.3.3-.6.5-.9.7l1.3.6c.4-.3.7-.7,1-1.1.2-.3.3-.7.3-1.1,0-.5-.1-.9-.4-1.2-.3-.4-.6-.6-1.1-.8-.4-.2-.9-.4-1.4-.5-.5-.1-1.1-.3-1.9-.4-1-.2-2-.5-3-.8-.6-.2-.9-.7-.7-1.3,0,0,0,0,0,0,0-.3.4-.5,1-.7.3-.1,1.2-.2,1.2-.7s-.5-.8-1.2-.9c-.8,0-1.6.3-2.1.9ZM38.6,17.9c-1,.2-1.8.3-2.2.3s-1.1,0-1.8.1c.1.2.3.3.4.4.2,0,.5.1.7.1.7,0,1.4,0,2.1-.2l1.2-.2-.3-.5ZM37.5,28.1c.2-.3.4-.6.6-.9l-1.2-.3c-.2.2-.4.5-.6.8-.1.3-.2.6-.2.9,0,.4,0,.8.3,1.2.2.3.4.6.8.8.3.2.7.4,1,.5.4.1.9.2,1.3.3.6.1,1.1.3,1.6.5.3.1.5.4.5.8,0,.6-.3,1.1-.7,1.5l1.1.5c.5-.6.8-1.3.9-2,0-.6-.3-1.1-.8-1.4-.7-.4-1.5-.7-2.3-1-.6-.2-1.2-.4-1.8-.7-.4-.2-.6-.5-.6-.9,0-.2,0-.4.1-.5ZM38.5,31.8l-1-.3c-.2.3-.3.6-.4.9,0,.3-.1.5,0,.8,0,.5.2,1,.6,1.4.6.3,1.1.6,1.8.8.6.2,1.1.4,1.6.7.4.3.5.7.5,1.1,0,.3,0,.9-.4,1.1.2,0,.7-.6.8-.8.1-.3.2-.7.2-1,0-.5-.2-1-.6-1.3-.5-.4-1.1-.6-1.6-.8-.5-.2-.9-.4-1.3-.6-.3-.2-.5-.5-.5-.9,0-.4.1-.8.4-1.1ZM38.7,35.9l-.6-.2c-.1.1-.2.3-.2.5,0,.2-.1.4,0,.6,0,.3,0,.6.2.9.2.3.4.5.7.7-.2-.3-.2-.7-.3-1,0-.5.1-1,.3-1.4ZM39.1,29.3v-2c-.4.2-.6.3-.7.6-.1.2-.2.3-.2.5,0,.3.3.6.9.9ZM41.2,10.8c0-.3-.1-.6-.4-.8-.2-.2-.6-.3-.9-.3-.3,0-.6.1-.8.3-.2.2-.4.5-.4.8,0,.7.4,1.1,1.3,1.1s1.2-.3,1.2-1ZM39.2,33.5v-1.3c-.3,0-.5.3-.5.6,0,.3.2.6.5.7ZM40.4,12.4h-.9v12.5c0,0,.7,0,.7,0v-12.6ZM40.1,27.5h-.5c0,0,0,1.9,0,1.9l.4.2v-2ZM40.1,32.1h-.4c0,0,0,1.6,0,1.6l.3.2v-1.8ZM40.1,36.4l-.4-.2v4.4h.3v-4.2ZM40.6,32.4v1.2c.3-.3.5-.6.5-.7,0-.3-.2-.5-.5-.5ZM40.7,27.6v1.9c.2,0,.4-.2.6-.4.2-.2.3-.4.3-.7,0-.4-.3-.6-.9-.8h0ZM42.8,13c-.3.4-.5.9-.6,1.5,0,.4-.2.7-.3,1.1-.2.3-.5.5-.8.5v.9c.5,0,1-.3,1.4-.7.3-.4.5-.8.6-1.3,0-.4.2-.8.5-1.1.4-.3.9-.4,1.3-.3.4,0,1,0,1.9.1,1.3.1,2.4.2,3.3.2.9,0,1.9,0,2.8-.3.5-.2,1-.5,1.3-1-.4.1-.9.2-1.3.3-.6,0-1.1,0-1.7,0l-6.5-.4c-.7,0-1.3,0-1.8.5ZM45.1,19c.2,0,.4-.3.5-.5-.2,0-.4,0-.8,0l-3.8-.4v.5l2,.3c.9.1,1.5.3,2.1,0h0ZM47.4,17.2h-2c-.6-.1-1.5-.2-2.7-.3l-1.6.5c.9.2,1.8.3,2.5.4.7,0,1.5.1,2.2.1.4,0,.9,0,1.3-.1.3-.1.5-.3.7-.5h-.5ZM44.3,22.8c.3.2.5.3.5.5,0,.4-.3.7-.8,1.1-.6.4-1.3.8-2,1l1.4.7c.7-.2,1.4-.7,1.9-1.3.5-.6.8-1.4.8-2.2,0-.5-.1-.9-.4-1.3-.3-.3-.6-.5-1.1-.6-.5,0-1,0-1.4.3-.4.2-.6.6-.4.8.5.4,1,.7,1.5.9h0ZM46.9,15.8c-.7,0-1.3,0-1.8,0h-1.8s-.3.6-.3.6l3.8.2c.8,0,1.7,0,2.5-.1.4,0,.7-.3,1-.6h-1.1c-.5,0-.8,0-.9,0-.3,0-.8,0-1.4,0h0ZM47.4,14.2c-.9,0-1.8-.1-2.6-.2h-.4c-.2,0-.5,0-.6.2-.2.2-.2.4-.3.6l5.7.3c.7,0,1.4,0,2-.2.4,0,.7-.3.9-.6-.7,0-1.5,0-2.3,0-.7,0-1.4,0-2.3,0h0Z"/>
  <path class="cls-1" d="M56.5,39.2c-2.2-1.2-4-3-5.3-5.2-1.3-2.3-2-4.8-1.9-7.4,0-2.6.6-5.2,1.9-7.4,1.3-2.2,3.1-4,5.3-5.2,2.3-1.3,4.9-1.9,7.6-1.9,1.9,0,3.9.3,5.7,1,1.7.6,3.2,1.6,4.4,3l-1.3,1.3c-2.3-2.3-5.5-3.5-8.8-3.4-2.3,0-4.5.5-6.5,1.6-1.9,1.1-3.5,2.6-4.6,4.5-1.1,2-1.7,4.2-1.7,6.4,0,2.3.5,4.5,1.7,6.4,1.1,1.9,2.7,3.5,4.6,4.5,2,1.1,4.2,1.7,6.5,1.6,3.3.1,6.4-1.1,8.8-3.4l1.3,1.3c-1.2,1.3-2.8,2.3-4.5,3-1.8.7-3.8,1-5.7,1-2.6,0-5.2-.6-7.5-1.9Z"/>
  <path class="cls-1" d="M16.4,41.1c-2,0-3.9-.3-5.7-1-1.7-.6-3.2-1.7-4.5-3l1.3-1.3c2.3,2.3,5.5,3.5,8.8,3.4,2.3,0,4.5-.5,6.5-1.6,1.9-1.1,3.5-2.6,4.6-4.5,1.1-2,1.7-4.2,1.7-6.4,0-2.3-.5-4.5-1.7-6.4-1.1-1.9-2.7-3.5-4.6-4.5-2-1.1-4.2-1.6-6.5-1.6-3.3-.1-6.4,1.1-8.8,3.4l-1.3-1.3c1.2-1.3,2.8-2.3,4.4-3,1.8-.7,3.8-1,5.7-1,2.6,0,5.2.6,7.6,1.9,2.2,1.2,4,3,5.3,5.2,1.3,2.3,2,4.8,1.9,7.4,0,2.6-.6,5.2-1.9,7.4-1.3,2.2-3.1,4-5.3,5.2-2.3,1.3-4.9,1.9-7.6,1.9Z"/>
  <path class="cls-1" d="M278.4,29.5c-.3,0-.6,0-.9-.2-.3-.1-.5-.3-.7-.5-.2-.2-.4-.5-.5-.7-.1-.3-.2-.6-.2-.8,0-.3,0-.6.2-.8.1-.3.3-.5.5-.7.2-.2.4-.4.7-.5.5-.2,1.1-.2,1.7,0,.3.1.5.3.7.5.2.2.4.4.5.7.1.3.2.5.2.8,0,.3,0,.6-.2.8-.1.3-.3.5-.5.7-.2.2-.4.4-.7.5-.3.1-.5.2-.8.2ZM278.4,29.2c.2,0,.5,0,.7-.1.2,0,.4-.2.6-.4.2-.2.3-.4.4-.6.2-.5.2-1,0-1.5,0-.2-.2-.4-.4-.6-.2-.2-.4-.3-.6-.4-.5-.2-1-.2-1.4,0-.2,0-.4.2-.6.4-.2.2-.3.4-.4.6-.2.5-.2,1,0,1.5,0,.2.2.4.4.6.2.2.4.3.6.4.2,0,.5.1.7.1ZM279.5,28.5h-.4l-.7-1.1h-.5v1.1h-.3v-2.4h1.1c.2,0,.5,0,.7.2.1.1.2.3.2.5,0,.1,0,.2,0,.3,0,0,0,.1-.2.2,0,0-.2,0-.2.1,0,0-.2,0-.3,0l.8,1.1ZM278.4,27.2h.3c0,0,.2,0,.3,0,0,0,.2,0,.2-.1,0,0,0-.2,0-.3,0,0,0-.2,0-.2,0,0,0,0-.1-.1,0,0-.1,0-.2,0h-.9v.8h.5Z"/>
  <text class="cls-2" transform="translate(289.6 14.8)"><tspan x="0" y="0">2022</tspan><tspan x="0" y="16.5">2023</tspan><tspan x="0" y="33">2024</tspan></text>
</svg>