<?xml version="1.0" encoding="UTF-8"?>
<svg id="Layer_1" data-name="Layer 1" xmlns="http://www.w3.org/2000/svg" version="1.1" viewBox="0 0 328.6 53.6">
  <defs>
    <style>
      .cls-1 {
        stroke-width: 0px;
      }

      .cls-1, .cls-2 {
        fill: #000;
      }

      .cls-2 {
        font-family: Futura-Medium, Futura;
        font-size: 13.5px;
        font-weight: 500;
      }
    </style>
  </defs>
  <g id="lB3q43">
    <g>
      <path class="cls-1" d="M159.7,46c.7-.1,1.4-.1,2.1,0h-2.1Z"/>
      <path class="cls-1" d="M80.6,30.4v-8.5h0c0-.9,0-.9-.8-.9-2.5,0-4.9,0-7.4,0s-.7,0-.7.7v15.2c0,.4,0,.8,0,1.3,0,.7.3,1.2,1,1.4.8.3,1.6.3,2.4.2.7,0,1.5-.1,2.2-.3.2,0,.3,0,.3.3,0,.7,0,1.4,0,2.2,0,.5-.2.7-.6.8-.7.1-1.4.2-2.1.2-1,0-2,0-3.1,0-.6,0-1.2-.2-1.8-.4-1.1-.4-1.7-1.3-1.8-2.4-.2-1.3-.1-2.5-.1-3.8v-14.5c0-.7,0-.7-.7-.7-1,0-2,0-3,0s-.4,0-.4-.4c0-.8,0-1.6,0-2.3,0-.3,0-.4.4-.4,1,0,2,0,3.1,0,.4,0,.6-.1.6-.6,0-2.3,0-4.7,0-7,0-.4.1-.5.5-.5,1,0,2,0,3,0,.3,0,.4.1.4.4,0,2.4,0,4.7,0,7.1,0,.4,0,.5.5.5,2.6,0,5.2,0,7.7,0,.4,0,.5-.1.5-.5,0-2.4,0-4.7,0-7.1,0-.4.1-.5.5-.5,1,0,2,0,2.9,0,.4,0,.5.1.5.5,0,2.4,0,4.7,0,7.1,0,.4,0,.5.5.5,1.6,0,3.2,0,4.7,0,.3,0,.4,0,.4.4,0,.8,0,1.5,0,2.2,0,.4-.1.5-.5.5-1.5,0-3,0-4.5,0s-.6,0-.6.6c0,.6,0,1.2,0,1.8,0,4.9,0,9.8,0,14.7,0,.8.2,1.1,1,1.4.5.2,1,.3,1.5.3,1,0,2,0,2.9-.3.3,0,.4,0,.3.3,0,.7,0,1.4,0,2.1,0,.5-.1.7-.7.8-1.6.2-3.2.3-4.8.1-.6,0-1.2-.1-1.8-.3-1.3-.5-2-1.4-2.2-2.8,0-.4,0-.7,0-1.1,0-2.8,0-5.6,0-8.3h0Z"/>
      <path class="cls-1" d="M63.7,32.2c0,2.4,0,4.8,0,7.2,0,1,0,1.9.5,2.9,0,.2,0,.2-.2.2-1.1,0-2.2,0-3.3,0-.3,0-.3-.2-.4-.4,0-.7-.1-1.5-.2-2.2,0-.1,0-.3-.2-.4-.1,0-.2.1-.3.2-1.6,1.6-3.5,2.7-5.8,3.1-2.1.3-4.1.2-6-1-2.2-1.4-3-3.5-2.9-6.1.1-2.9,1.6-5,4.1-6.4,2.5-1.4,5.3-2.1,8-2.7.8-.2,1.7-.4,2.5-.5.1,0,.3,0,.3-.2,0-1,.1-2-.3-3-.4-.8-.9-1.4-1.7-1.7-2.7-1-5.2-.8-7.5,1.1-.6.5-1,1.2-1.4,1.9-.1.3-.2.3-.5.1-.7-.6-1.6-.8-2.4-1.3-.5-.3-.5-.3-.2-.7,2.7-4.4,8.2-5.7,12.6-4.4,3.2,1,5.1,3.3,5.2,6.7,0,2.5,0,5,0,7.5,0,0,0,0,0,0ZM59.9,32.7h0c0-.9,0-1.9,0-2.8,0-.3,0-.4-.4-.3-2.3.5-4.6,1-6.7,2-1.2.5-2.3,1.2-3.1,2.2-1.2,1.4-1.2,3.4,0,4.6,1.1,1.2,2.5,1.6,4,1.2,2.4-.5,4.3-1.8,6-3.5.2-.2.2-.5.2-.8,0-.9,0-1.7,0-2.6Z"/>
      <path class="cls-1" d="M108.8,31c-2.5,0-5,0-7.5,0-.4,0-.5.1-.5.5.1,3.2,1.2,5.9,4.2,7.6,2.5,1.4,5,.9,7.3-.6.9-.6,1.6-1.3,2.1-2.3.3-.5.4-.5.9-.2.7.4,1.3.7,2,1.1.3.1.3.3.1.5-.8,1.3-1.7,2.5-2.9,3.4-1.4,1.1-3,1.7-4.8,1.9-1.5.2-3.1.1-4.6-.2-3.2-.8-5.4-2.9-6.7-5.8-1.1-2.4-1.3-4.9-1.2-7.6.1-2.3.6-4.6,1.7-6.7,2-4,6-5.5,9.7-5.1,1.5.2,3,.7,4.3,1.5,1.8,1.2,2.8,2.9,3.3,4.9.7,2.2.8,4.4.7,6.7,0,.3-.1.3-.4.3-.6,0-1.2,0-1.8,0-1.9,0-3.9,0-5.8,0,0,0,0,0,0,0ZM107,27.7c1.9-.1,3.7,0,5.6,0,.3,0,.4,0,.4-.4,0-.5-.1-1.1-.2-1.6-.5-2.6-1.9-4.6-4.6-4.9-2.2-.3-4.9.5-6.1,3-.5,1.1-.8,2.3-1,3.5,0,.4,0,.4.3.4,1.9,0,3.7,0,5.6,0Z"/>
      <path class="cls-1" d="M35.4,30.9h-7.4c-.7,0-.7,0-.6.7.1,1.5.5,2.9,1.2,4.3,1.3,2.5,3.3,4,6.2,3.9,2.7,0,4.8-1.4,6.2-3.7.3-.5.3-.5.8-.2.7.4,1.4.7,2.1,1.1.2,0,.2.1.1.3-1.6,2.9-3.8,4.9-7.1,5.5-2.9.5-5.8.2-8.4-1.5-2.3-1.6-3.7-3.8-4.3-6.6-.9-3.8-.7-7.5.7-11.2.8-2,2.1-3.8,4-4.8,3.3-1.8,6.6-1.9,9.9,0,2,1.1,3.1,3,3.8,5.1.4,1.2.5,2.4.6,3.6,0,1,.1,2,.1,3,0,.5-.2.5-.6.5-2,0-4.1,0-6.1,0-.4,0-.8,0-1.3,0t0,0ZM33.6,27.8h0c1.9,0,3.7,0,5.6,0,.4,0,.4-.1.4-.4,0-.7-.2-1.4-.3-2.1-1-4.1-5.2-5.9-8.7-3.5-2,1.3-2.6,3.4-2.9,5.6,0,.4,0,.5.5.5,1.8,0,3.7,0,5.5,0Z"/>
      <path class="cls-1" d="M14.3,43c-3.9,0-7.1-1.4-9.7-4.4-.3-.3-.2-.5,0-.7.7-.5,1.5-1.1,2.2-1.7.3-.2.4,0,.6.1.3.4.7.8,1.1,1.2,2.2,2.2,5.8,2.9,8.6,1.7,1.9-.8,2.8-3,1.9-4.7-.4-.7-1-1.2-1.7-1.6-1.3-.7-2.8-1.1-4.2-1.5-1.7-.5-3.3-1-4.8-1.8-1.8-1-2.9-2.4-3.2-4.4-.4-2.5.8-5.8,4.1-7.1,3.1-1.2,6-.9,9,.6,1.4.7,2.5,1.7,3.5,2.8.2.2.2.4,0,.5-.7.6-1.4,1.2-2,1.8-.2.2-.3.1-.5,0-1-1.1-2-2.1-3.3-2.7-1.6-.7-3.3-.7-5-.2-1.5.5-2.4,2.2-2,3.8.2.8.8,1.2,1.4,1.6,1.3.7,2.7,1.2,4.1,1.6,1.9.5,3.9,1.1,5.6,2.2,2.2,1.4,3.1,3.4,3,6-.1,3.3-2.7,5.7-5.6,6.4-1,.3-2,.4-3.1.4Z"/>
      <path class="cls-1" d="M92.1,26c0-5.3,0-10.6,0-16,0-.3,0-.4.4-.4.9,0,1.9,0,2.8,0,.4,0,.5.1.5.5,0,.5,0,1.1,0,1.6,0,10.1,0,20.2,0,30.3s0,.5-.5.5c-.9,0-1.8,0-2.7,0-.3,0-.5,0-.5-.5,0-5.3,0-10.7,0-16,0,0,0,0,0,0Z"/>
      <path class="cls-1" d="M160.6,45.7c-1.1,0-2.2,0-3.3-.3s-2-.9-2.2-2.1c-.2-1.1.3-2.1,1.6-2.7.2,0,.4-.1.5-.3,0-.2-.3-.3-.5-.4,0,0-.2,0-.3-.2-.8-.7-1.2-1.5-.4-2.5.3-.3.6-.6,1-.8.4-.1.3-.3,0-.5-.1-.1-.3-.3-.4-.5-1.2-1.4-1.4-2.9-.7-4.6.6-1.5,1.8-2.3,3.4-2.6,1.2-.2,2.4-.2,3.5.4.7.4,1.1.3,1.7,0,.4-.3.9-.4,1.4-.6.3,0,.5,0,.4.3,0,.4.1.8-.1,1.1-.3.3-.7,0-1.1.2,0,0-.1,0-.2,0-.6.1-.6.2-.4.7.5,1,.7,2,.5,3-.3,1.7-1.4,2.8-3,3.3-1.1.4-2.2.3-3.3,0-.8-.2-1.1,0-1.5.6-.4.6-.1,1.2.5,1.5.3.1.7.1,1,.1,1.6,0,3.2,0,4.7.5.4.1.8.2,1.1.4,1,.4,1.6,1.1,1.7,2.2.1,1.2-.3,2.2-1.3,2.8-1,.6-2,1-3.2.9-.4,0-.8,0-1.2,0ZM160.6,35.5c0,0,.3,0,.5,0,1.2,0,2.1-.8,2.5-1.8.4-1.2,0-2.6-.8-3.3-.8-.7-1.8-.8-2.8-.7-1.3.1-2.4,1-2.6,2.2-.3,1.4.3,2.6,1.5,3.3.5.3,1.1.4,1.8.4ZM160.7,40.6c-.3,0-.6,0-.9,0-.9,0-1.8.2-2.6.8-.6.5-.7,1.1-.5,1.7.1.6.7.8,1.2.9,1.5.3,3,.4,4.6.1.6-.1,1.2-.3,1.7-.7.8-.6.8-1.4,0-2.1-.2-.2-.5-.4-.8-.5-.9-.3-1.8-.3-2.7-.4Z"/>
      <path class="cls-1" d="M124,34.7c0-2,0-4,0-5.9,0-.3,0-.5.4-.4.2,0,.4,0,.6,0,.6,0,.6,0,.5.6,0,.2,0,.5,0,.7,0,.1,0,.3.1.3.1,0,.2,0,.3-.1.4-.4.8-.7,1.2-1,1.4-.8,2.8-.9,4.3-.2.5.3.9.7,1.2,1.2.2.3.3.4.6,0,1.1-1.1,2.3-1.7,3.9-1.7,2,0,3.2,1.1,3.3,3.2,0,2.7,0,5.3,0,8s0,.9,0,1.3c0,.3,0,.4-.4.4-1.3,0-1.3,0-1.3-1.2v-6.7c0-.6.1-1.2,0-1.8-.1-1-.9-1.7-1.9-1.7-1.7,0-2.8.9-3.8,2-.1.1,0,.3,0,.4,0,2.9,0,5.8,0,8.7,0,.4-.1.5-.5.5-.4,0-.9,0-1.2-.1s0-.7,0-1.1c0-2.6,0-5.2,0-7.8h0c0-2.2-1.2-2.9-3.1-2.4-1.1.3-1.9,1.1-2.6,1.9-.1.1-.1.3,0,.5.1,2.9,0,5.8,0,8.6,0,.3,0,.5-.4.4-.4,0-.9.2-1.1-.1-.2-.2,0-.7,0-1.1,0-1.7,0-3.5,0-5.2Z"/>
      <path class="cls-1" d="M177.3,35.8c0,1.2,0,2.4,0,3.6,0,.5,0,.9.3,1.3.1.2,0,.3-.2.3h-.4c-1.3,0-1.1.2-1.3-1.2,0-.1,0-.3,0-.4-.2,0-.3,0-.4.2-.9.8-1.9,1.4-3.1,1.6-2,.4-4-.6-4.3-2.5-.4-1.9.2-3.3,2-4.3,1.5-.9,3.2-1.3,5-1.6,1-.2,1.1-.2.9-1.2-.2-1.2-.8-1.9-2.1-2.1-1.6-.2-3,.2-3.9,1.6-.1.2-.3.2-.5.1-.2-.1-.3-.2-.5-.3-.6-.3-.6-.3-.2-.8,1.7-2.2,4.6-2.4,6.7-1.5,1.4.6,2.1,1.8,2.1,3.4,0,1.3,0,2.5,0,3.8,0,0,0,0,0,0ZM175.6,36h0c0-.4,0-.8,0-1.3,0-.5,0-.6-.5-.5-1.1.3-2.3.5-3.3,1-.7.3-1.3.7-1.8,1.3-.4.5-.6,1-.4,1.6.3,1,1.3,1.7,2.4,1.6,1.1-.1,2-.7,2.9-1.3.6-.4.9-.9.8-1.7,0-.3,0-.5,0-.8Z"/>
      <path class="cls-1" d="M152.9,35.6c0,1.1,0,2.2,0,3.2,0,.7,0,1.3.2,1.9,0,.3,0,.4-.3.4h0q-1.2,0-1.3-1.2c0-.2,0-.4-.1-.4-.2,0-.3.1-.5.2-.9.8-1.8,1.4-3,1.6-.9.2-1.9,0-2.8-.4-1.9-1-2.4-3.8-.9-5.4.6-.7,1.4-1.2,2.3-1.5,1.5-.6,2.9-1,4.5-1.2.1,0,.3,0,.3-.2.2-1.3,0-2.5-1.4-2.9-1.2-.4-2.4-.3-3.5.5-.3.2-.6.5-.8.9-.1.3-.4.4-.7.2-.1,0-.2-.1-.4-.2-.7-.4-.7-.4-.2-1,1.3-1.6,3-2.1,5-1.9.8,0,1.5.3,2.2.7,1,.7,1.5,1.7,1.5,2.9,0,1.3,0,2.5,0,3.8h0ZM151.2,36.1h0c0-.5,0-.9,0-1.4,0-.4,0-.5-.5-.4-1,.2-2,.5-3,.8-.7.3-1.4.6-2,1.2-.7.7-.8,1.6-.5,2.3.4.8,1.4,1.3,2.3,1.2,1.2-.1,2.1-.7,3-1.4.5-.4.8-.8.7-1.4,0-.3,0-.6,0-.9Z"/>
      <path class="cls-1" d="M216.9,35c-1.2,0-2.5,0-3.7,0-.4,0-.5.1-.5.5,0,1.4.5,2.6,1.6,3.6,1.3,1.1,3.5,1.1,4.8,0,.3-.3.7-.7,1-1,.2-.2.4-.2.6,0,.9.5.9.5.2,1.3-2,2.6-5.8,2.5-7.8.7-1.2-1-1.7-2.4-1.9-3.9-.2-1.7-.1-3.5.6-5.1,1.6-3.8,6.3-3.5,8-1.4.9,1.1,1.2,2.4,1.3,3.7,0,.4,0,.7,0,1.1,0,.4,0,.5-.5.5-1.3,0-2.5,0-3.8,0t0,0ZM216,33.5h0c.9,0,1.9,0,2.8,0,.4,0,.5-.1.4-.5,0-.3-.1-.6-.2-.9-.3-1.2-.9-2.1-2.1-2.4-1.2-.3-2.3,0-3.2.9-.7.7-.8,1.6-1,2.5,0,.4,0,.4.4.4,1,0,1.9,0,2.9,0Z"/>
      <path class="cls-1" d="M200.3,30.1c.4-.2.6-.5.9-.7,1.3-1.1,2.7-1.5,4.3-1.1,1.3.4,2.2,1.4,2.3,2.8,0,1.8,0,3.5,0,5.3,0,1.4,0,2.8,0,4.2,0,.4,0,.5-.5.5-1.1,0-1.1,0-1.1-1.2,0-2.6,0-5.3,0-7.9,0-.2,0-.5,0-.7-.2-1.2-.9-1.8-2.1-1.8-1.6,0-2.7.8-3.7,1.9-.1.1-.2.3-.2.5,0,2.7,0,5.5,0,8.2s0,0,0,.1c.2.8,0,.9-.8.8s-.9,0-.9-.9c0-3.8,0-7.6,0-11.4,0-.3,0-.4.4-.4.4,0,1-.2,1.3,0,.3.2,0,.8,0,1.2,0,.1,0,.3,0,.4Z"/>
      <path class="cls-1" d="M184.4,41.1c-1.4,0-2.8,0-4.2,0-.4,0-.5-.1-.5-.5,0-.4.1-.8.4-1.2,2-2.9,4.1-5.8,6.1-8.6.2-.3.6-.6.4-.9-.1-.2-.6,0-.9,0-1.6,0-3.3,0-4.9,0-.3,0-.4,0-.4-.4,0-1.1,0-1.1,1-1.1,2.4,0,4.8,0,7.2,0,.4,0,.5,0,.5.5,0,.5-.2.9-.4,1.3-2.2,3-4.3,6.1-6.5,9.2,0,.1-.2.2-.2.3,0,.2.3,0,.4,0,2.1,0,4.2,0,6.3,0,.3,0,.4,0,.4.4,0,1,0,1-1,1h-3.7s0,0,0,0Z"/>
      <path class="cls-1" d="M194,34.8c0,2,0,3.9,0,5.9,0,.4-.1.5-.5.5-.3,0-.5,0-.8,0-.3,0-.4,0-.4-.3.1-4,0-8,0-12,0-.3,0-.5.4-.4.2,0,.4,0,.5,0q.6,0,.6.6v5.8s0,0,0,0Z"/>
    </g>
  </g>
  <text class="cls-2" transform="translate(288.4 15)"><tspan x="0" y="0">2022</tspan><tspan x="0" y="16.2">2023</tspan><tspan x="0" y="32.4">2024</tspan></text>
  <text class="cls-2" transform="translate(243.4 24.1)"><tspan x="0" y="0">TOP</tspan><tspan x="-6.7" y="16.2">DOCS</tspan></text>
</svg>