<?xml version="1.0" encoding="utf-8"?>
<!-- Generator: Adobe Illustrator 27.5.0, SVG Export Plug-In . SVG Version: 6.00 Build 0)  -->
<svg version="1.1" id="Layer_1" xmlns="http://www.w3.org/2000/svg" xmlns:xlink="http://www.w3.org/1999/xlink" x="0px" y="0px"
	 viewBox="0 0 328.61 53.62" style="enable-background:new 0 0 328.61 53.62;" xml:space="preserve">
<g id="vLENaj.tif">
	<g>
		<path d="M26.29,30.45c-0.07-0.26-0.3-0.37-0.48-0.51c-1.24-0.97-2.54-1.85-3.9-2.63c-1.28-0.73-2.49-1.58-3.65-2.48
			c-1.17-0.91-2.1-2.02-2.82-3.3c-1.33-2.37-1.22-5.59,1.09-8.11c1.54-1.69,3.53-2.44,5.7-2.75c3.71-0.54,7.2,0.1,10.41,2.09
			c0.51,0.32,1,0.66,1.46,1.05c0.23,0.19,0.27,0.36,0.09,0.62c-0.72,1.03-1.43,2.07-2.14,3.12c-0.2,0.29-0.34,0.32-0.64,0.1
			c-1.3-0.94-2.67-1.79-4.25-2.18c-0.93-0.23-1.88-0.4-2.84-0.17c-0.35,0.08-0.68,0.2-0.98,0.41c-0.84,0.6-1.02,1.35-0.57,2.28
			c0.36,0.74,0.94,1.27,1.57,1.76c1.57,1.23,3.25,2.3,4.96,3.32c1.79,1.07,3.47,2.26,4.86,3.83c1.46,1.65,1.9,3.55,1.48,5.67
			c-0.07,0.35,0,0.51,0.33,0.6c0.41,0.11,0.86,0.42,1.19,0.32c0.38-0.11,0.25-0.71,0.39-1.09c0.48-1.36,1.27-2.46,2.6-3.12
			c0.32-0.16,0.64-0.31,0.99-0.48c-0.17-0.26-0.45-0.36-0.68-0.5c-2.29-1.43-2.76-4.1-1.08-6.21c1.04-1.3,2.39-2.05,4.02-2.34
			c2.23-0.4,4.45-0.48,6.66,0.12c1.15,0.31,2.22,0.8,3.24,1.42c0.3,0.19,0.35,0.34,0.11,0.64c-0.4,0.51-0.76,1.05-1.12,1.58
			c-0.15,0.21-0.28,0.26-0.51,0.11c-1.13-0.71-2.4-0.94-3.7-1.08c-1.22-0.13-2.11,0.4-2.44,1.45c-0.34,1.06,0.16,2.19,1.19,2.74
			c0.78,0.41,1.63,0.51,2.49,0.58c1.11,0.1,1.11,0.09,1.13,1.2c0.02,1.36,0.02,1.36-1.31,1.54c-0.59,0.08-1.19,0.15-1.76,0.37
			c-1.49,0.56-2.34,1.93-2.11,3.42s1.47,2.51,3.07,2.59c1.87,0.1,3.66-0.11,5.3-1.08c0.08-0.05,0.17-0.1,0.25-0.15
			c0.84-0.53,0.83-0.53,0.6-1.48c-0.65-2.68-0.72-5.35,0.36-7.93c1.52-3.62,4.34-5.59,8.21-6.01c2.42-0.26,4.8,0.09,7.05,1.05
			c1.29,0.55,2.36,1.4,3.18,2.55c0.46,0.65,0.68,1.37,0.68,2.18c-0.01,3.1,0,6.2-0.01,9.29c0,1.05,0.58,1.63,1.64,1.68
			c0.87,0.05,1.64-0.12,2.26-0.78c0.16-0.17,0.28-0.35,0.26-0.6c-0.15-1.9-0.06-3.81-0.07-5.71c-0.02-2.29-0.01-4.58,0-6.87
			c0-0.38-0.12-0.46-0.47-0.46c-1.01,0.02-2.01-0.01-3.02,0c-0.33,0-0.46-0.1-0.42-0.45c0.04-0.38,0.04-0.78,0.01-1.16
			c-0.03-0.4,0.11-0.54,0.52-0.53c0.97,0.02,1.95-0.01,2.92,0.01c0.37,0.01,0.48-0.12,0.47-0.48c-0.01-1.57,0.01-3.13,0-4.7
			c0-0.35,0.06-0.47,0.45-0.47c2.27,0.02,4.55,0.02,6.82,0c0.33,0,0.45,0.09,0.44,0.43c-0.01,1.6,0.01,3.19,0,4.79
			c0,0.32,0.05,0.46,0.42,0.44c0.96-0.04,1.92-0.03,2.87-0.02c0.3,0,0.42-0.06,0.42-0.4c0-1.6,0.04-3.19,0.04-4.79
			c0-0.37,0.11-0.45,0.47-0.45c2.26,0.02,4.51,0.02,6.77,0c0.4,0,0.5,0.13,0.49,0.5c-0.01,1.53,0.02,3.07-0.01,4.6
			c-0.01,0.51,0.17,0.62,0.65,0.6c0.86-0.04,1.72-0.03,2.58,0.01c0.35,0.02,0.4-0.11,0.39-0.41c-0.01-1.55-0.03-3.1,0-4.65
			c0.03-1.65,0.68-3.07,1.82-4.26c0.65-0.67,1.49-0.99,2.4-1.18c1.63-0.34,3.25-0.18,4.81,0.27c2.39,0.69,3.6,2.5,4.09,4.79
			c0.42,1.93,0,3.75-1.2,5.36c-0.86,1.15-2.05,1.75-3.44,2c-0.7,0.13-0.7,0.14-0.7,0.82c0,3.97,0,7.94,0,11.91
			c0,0.92,0.28,1.42,0.92,1.64c0.66,0.23,1.89-0.09,2.31-0.57c0.13-0.16,0.15-0.31,0.09-0.49c-0.8-2.69,0.61-5.28,3.1-6.27
			c0.15-0.06,0.28-0.14,0.51-0.26c-0.24-0.14-0.42-0.25-0.6-0.36c-2.49-1.45-2.96-4.28-1.1-6.46c1.05-1.22,2.38-1.91,3.95-2.19
			c2.23-0.4,4.45-0.46,6.66,0.13c1.1,0.3,2.13,0.76,3.11,1.35c0.29,0.18,0.38,0.34,0.15,0.65c-0.36,0.47-0.7,0.97-1.03,1.47
			c-0.22,0.34-0.39,0.39-0.77,0.16c-1.38-0.81-2.9-1.14-4.48-0.92c-1.01,0.14-1.46,0.86-1.54,1.88c-0.14,1.72,1.22,2.42,2.45,2.66
			c0.62,0.12,1.25,0.16,1.88,0.23c0.33,0.03,0.49,0.16,0.47,0.52c-0.03,0.5-0.02,1,0.01,1.5c0.02,0.37-0.13,0.52-0.49,0.57
			c-0.66,0.08-1.32,0.16-1.97,0.3c-2.01,0.43-3.11,2.09-2.62,3.92c0.35,1.34,1.54,2.19,3.16,2.27c2.44,0.12,4.61-0.57,6.47-2.16
			c0.19-0.17,0.32-0.17,0.48,0.03c0.3,0.38,0.61,0.75,0.92,1.12c0.2,0.24,0.19,0.43-0.07,0.65c-2.43,2.07-5.18,3.35-8.43,3.57
			c-1.97,0.14-3.89,0.06-5.77-0.52c-1.17-0.36-2.26-0.88-3.17-1.74c-0.11-0.1-0.18-0.25-0.38-0.04c-1.2,1.24-2.67,1.97-4.37,2.23
			c-1.08,0.16-2.17,0.22-3.25,0.02c-1.42-0.26-2.61-0.95-3.52-2.08c-0.13-0.15-0.19-0.28-0.4-0.07c-1.86,1.88-4.2,2.39-6.74,2.23
			c-1.73-0.11-3.19-0.79-4.27-2.19c-0.15-0.19-0.24-0.23-0.44-0.02c-1.22,1.25-2.74,1.92-4.47,2.14c-1.21,0.15-2.43,0.18-3.62-0.17
			c-1.07-0.31-1.99-0.86-2.72-1.7c-0.2-0.24-0.3-0.25-0.56-0.03c-1.29,1.12-2.81,1.7-4.5,1.89c-1.18,0.13-2.36,0.19-3.54-0.06
			c-1.21-0.25-2.26-0.8-3.09-1.71c-0.16-0.17-0.25-0.2-0.42-0.03c-1.43,1.44-3.2,1.95-5.18,1.89c-2.13-0.07-3.92-0.9-5.41-2.41
			c-0.22-0.23-0.33-0.68-0.64-0.66c-0.27,0.02-0.52,0.35-0.79,0.53c-2.16,1.44-4.49,2.32-7.11,2.48c-1.92,0.12-3.8,0.05-5.63-0.51
			c-1.65-0.51-3.14-1.31-4.11-2.83c-0.09-0.14-0.25-0.21-0.4-0.25c-0.9-0.27-1.8-0.54-2.69-0.83c-0.24-0.08-0.37-0.06-0.51,0.17
			c-0.39,0.65-0.95,1.14-1.56,1.57c-2.33,1.65-4.95,2.49-7.79,2.74c-1.97,0.18-3.95,0.31-5.93,0.1c-1.57-0.17-3.11-0.49-4.54-1.17
			c-1.32-0.62-2.25-1.65-2.79-2.97c-0.59-1.44-0.31-3.78,1.77-4.93c0.93-0.51,1.94-0.79,3-0.91c3.1-0.35,6.15,0.04,9.19,0.62
			C25.95,30.46,26.11,30.54,26.29,30.45z M66.15,30c0-2.2,0-4.07,0-5.94c0-0.88-0.31-1.41-0.95-1.63c-0.92-0.32-1.73-0.11-2.28,0.57
			c-0.34,0.42-0.53,0.92-0.67,1.43c-0.63,2.28-0.61,4.62-0.53,6.96c0.05,1.28,0.29,2.53,0.8,3.71c0.6,1.38,2.23,1.79,3.41,0.88
			c0.21-0.16,0.32-0.33,0.3-0.61C66.06,33.47,66.2,31.56,66.15,30z M89.54,28.7C89.53,28.7,89.53,28.7,89.54,28.7
			c-0.01-2.06-0.01-4.13,0-6.19c0-0.22,0.02-0.41-0.31-0.4c-0.99,0.04-1.98-0.05-2.97,0.01c-0.36,0.02-0.45,0.12-0.45,0.48
			c0.01,3.71,0,7.42-0.01,11.12c0,0.52-0.06,1.03,0.04,1.54c0.14,0.73,0.58,1.16,1.28,1.16c0.83,0,1.55-0.3,2.13-0.89
			c0.22-0.22,0.29-0.47,0.29-0.78C89.53,32.73,89.54,30.72,89.54,28.7z M100.84,28.72L100.84,28.72c0-2.06,0-4.13,0-6.19
			c0-0.25,0.04-0.46-0.36-0.44c-0.94,0.04-1.88,0.05-2.82,0.04c-0.36,0-0.46,0.12-0.46,0.48c-0.01,3.95,0.05,7.9-0.03,11.85
			c-0.01,0.3,0.02,0.61,0.08,0.91c0.14,0.66,0.65,1.08,1.31,1.06c0.73-0.02,1.39-0.26,1.95-0.75c0.23-0.2,0.33-0.45,0.33-0.76
			C100.84,32.85,100.84,30.79,100.84,28.72z M21.33,35.34c1.43,0,2.85-0.12,4.19-0.68c0.54-0.23,1.05-0.5,1.48-0.91
			c0.32-0.31,0.3-0.41-0.13-0.5c-0.81-0.18-1.62-0.33-2.44-0.37c-1.57-0.07-3.13-0.37-4.7-0.15c-0.56,0.08-1.13,0.16-1.59,0.52
			c-0.53,0.41-0.53,1.01-0.01,1.43c0.3,0.24,0.63,0.39,1,0.48C19.84,35.33,20.59,35.32,21.33,35.34z M108.63,16.98
			c0,0.9,0,1.8,0,2.71c0,0.13-0.08,0.36,0.21,0.32c0.93-0.12,1.71-0.48,2.2-1.33c0.67-1.16,0.72-2.38,0.42-3.65
			c-0.12-0.49-0.31-0.95-0.72-1.28c-0.5-0.41-1.09-0.43-1.65-0.21c-0.49,0.19-0.46,0.69-0.46,1.13
			C108.63,15.44,108.63,16.21,108.63,16.98z"/>
		<path d="M140.59,13.68c2.72-3.43,7.84-3.14,10.25-1.09c0.37,0.32,0.75,0.62,1.04,1.02c0.19,0.26,0.29,0.3,0.54,0.03
			c1.61-1.8,3.65-2.62,6.06-2.54c0.94,0.03,1.87,0.13,2.75,0.51c2.2,0.95,3.23,2.73,3.61,4.98c0.16,0.91,0.19,1.82,0.19,2.75
			c-0.01,4.99-0.01,9.97-0.01,14.96c0,0.06,0.01,0.13,0,0.19c-0.13,2.01,1.56,2.15,2.73,1.57c0.64-0.31,0.66-0.39,0.51-1.1
			c-0.54-2.55,0.5-4.68,2.86-5.85c0.25-0.13,0.54-0.2,0.76-0.42c-0.16-0.22-0.41-0.27-0.61-0.39c-1.36-0.78-2.06-1.98-2.23-3.49
			c-0.12-1.08,0.43-1.96,1.07-2.77c1.08-1.39,2.55-2.08,4.26-2.39c2.2-0.39,4.39-0.41,6.56,0.2c1.08,0.3,2.1,0.74,3.05,1.35
			c0.29,0.19,0.32,0.36,0.12,0.62c-0.39,0.54-0.77,1.08-1.14,1.63c-0.16,0.24-0.29,0.22-0.51,0.08c-1.26-0.78-2.66-1.09-4.13-1.08
			c-0.85,0-1.53,0.35-1.87,1.15c-0.36,0.86-0.34,1.71,0.32,2.45c0.73,0.82,1.73,1.03,2.75,1.16c0.4,0.05,0.81,0.08,1.21,0.11
			c0.26,0.02,0.37,0.13,0.37,0.4c-0.01,0.6-0.01,1.19,0,1.79c0,0.22-0.06,0.3-0.29,0.33c-0.77,0.1-1.54,0.24-2.3,0.37
			c-0.35,0.06-0.68,0.2-0.99,0.38c-1.28,0.72-1.79,1.96-1.47,3.57c0.22,1.1,1.33,1.97,2.77,2.15c3.41,0.42,6.25-0.73,8.62-3.13
			c0.15-0.15,0.29-0.31,0.43-0.46c0.67-0.68,0.92-1.46,0.89-2.45c-0.08-2.56-0.05-5.13-0.03-7.7c0-0.4-0.12-0.49-0.49-0.48
			c-0.81,0.02-1.62-0.01-2.43,0.01c-0.31,0.01-0.44-0.07-0.43-0.4c0.02-0.43,0.02-0.87,0-1.31c-0.02-0.33,0.08-0.45,0.44-0.44
			c0.83,0.02,1.66-0.02,2.48,0.01c0.36,0.01,0.44-0.12,0.44-0.44c0-1.6,0.03-3.19,0.03-4.79c0-0.32,0.08-0.41,0.4-0.41
			c2.29,0.01,4.58,0.01,6.87,0c0.35,0,0.49,0.07,0.48,0.45c-0.02,1.55,0.03,3.1-0.01,4.65c-0.01,0.53,0.17,0.6,0.63,0.6
			c2.44-0.02,4.87,0,7.31,0c0.64,0,0.64,0.01,0.64,0.64c0,0.35-0.01,0.71,0.01,1.06c0.02,0.32-0.11,0.41-0.42,0.41
			c-2.03-0.02-4.06-0.03-6.09-0.04c-0.57,0-1.14,0.02-1.7-0.01c-0.41-0.02-0.53,0.12-0.53,0.52c0.01,3.29,0,6.58-0.01,9.87
			c0,0.71-0.01,1.42-0.01,2.13c0,0.32,0.03,0.64,0.16,0.95c0.36,0.87,0.98,1.06,2.26,0.8c0.45-0.09,0.85-0.33,1.16-0.67
			c0.16-0.18,0.29-0.19,0.43,0c0.01,0.01,0.02,0.02,0.03,0.04c0.88,1.1,1.06,0.97-0.08,2.03c-1.58,1.49-3.55,1.93-5.66,1.88
			c-1.12-0.03-2.23-0.14-3.26-0.66c-1.45-0.72-2.32-1.87-2.64-3.44c-0.02-0.12,0.01-0.26-0.1-0.35c-0.24,0.21-0.47,0.42-0.7,0.63
			c-2.09,1.83-4.41,3.26-7.23,3.63c-2.68,0.36-5.37,0.53-8-0.32c-1.12-0.36-2.17-0.85-3.04-1.66c-0.16-0.15-0.24-0.11-0.39,0.02
			c-2.07,1.92-4.56,2.43-7.3,2.15c-2.05-0.21-3.48-1.21-4.34-3.05c-0.28-0.61-0.41-1.25-0.41-1.92c0.01-5.16,0.01-10.33,0.01-15.49
			c0-0.47,0.04-0.93-0.08-1.4c-0.27-1.12-1.08-1.64-2.35-1.5c-1.09,0.12-1.76,0.85-1.76,1.95c-0.01,2.44,0,4.87,0,7.31
			c0,4.36-0.01,8.71,0.01,13.07c0,0.44-0.12,0.52-0.54,0.52c-2.26-0.02-4.51-0.02-6.77,0c-0.41,0-0.51-0.1-0.51-0.5
			c0.01-6.76,0.01-13.52,0.01-20.28c0-1.74-1.48-2.64-3.06-1.86c-0.72,0.35-1,1-1.03,1.74c-0.03,0.82-0.01,1.65-0.01,2.47
			c0,5.99,0,11.97,0,17.96c0,0.36-0.1,0.47-0.47,0.47c-2.24-0.01-4.48-0.02-6.72,0c-0.43,0-0.51-0.15-0.51-0.53
			c0-2.82-0.02-5.65-0.02-8.47c0-4.68,0-9.36,0.01-14.04c0-1.74-0.89-2.3-2.43-1.47c-0.41,0.22-0.63,0.19-0.86-0.19
			c-0.15-0.25-0.32-0.49-0.53-0.69c-0.33-0.33-0.28-0.53,0.1-0.78c1.46-0.98,2.98-1.78,4.79-1.84c1.86-0.06,3.63,0.23,5.1,1.49
			C139.99,12.9,140.32,13.23,140.59,13.68z"/>
	</g>
</g>
<g>
	<path d="M226.56,10.52v2.4h-3.13v9.18h-2.84v-9.18h-3.13v-2.4H226.56z"/>
	<path d="M234.63,18.34c0,2.28-1.52,3.95-4.22,3.95c-2.7,0-4.22-1.67-4.22-3.95v-1.16c0-2.28,1.52-3.95,4.22-3.95
		c2.7,0,4.22,1.67,4.22,3.95V18.34z M230.41,15.43c-1.06,0-1.52,0.73-1.52,1.6v1.46c0,0.88,0.46,1.6,1.52,1.6s1.52-0.73,1.52-1.6
		v-1.46C231.93,16.16,231.47,15.43,230.41,15.43z"/>
	<path d="M236.25,13.43h2.65v0.91c0.26-0.48,1.19-1.11,2.38-1.11c2.45,0,3.67,1.85,3.67,3.82v1.42c0,1.97-1.22,3.82-3.67,3.82
		c-1.04,0-1.89-0.48-2.25-0.91v3.59h-2.78V13.43z M239.03,18.38c0,1.09,0.73,1.64,1.55,1.64c1.09,0,1.59-0.66,1.59-1.69V17.2
		c0-0.99-0.5-1.69-1.59-1.69c-0.83,0-1.55,0.55-1.55,1.64V18.38z"/>
	<path d="M255.43,10.52c3.19,0,4.83,1.94,4.83,4.6v2.38c0,2.66-1.64,4.6-4.83,4.6h-5.06V10.52H255.43z M257.42,15.1
		c0-1.47-0.78-2.25-2.5-2.25h-1.72v6.91h1.72c1.72,0,2.5-0.78,2.5-2.25V15.1z"/>
	<path d="M270.12,18.34c0,2.28-1.52,3.95-4.22,3.95s-4.22-1.67-4.22-3.95v-1.16c0-2.28,1.52-3.95,4.22-3.95s4.22,1.67,4.22,3.95
		V18.34z M265.9,15.43c-1.06,0-1.52,0.73-1.52,1.6v1.46c0,0.88,0.46,1.6,1.52,1.6s1.52-0.73,1.52-1.6v-1.46
		C267.43,16.16,266.96,15.43,265.9,15.43z"/>
	<path d="M271.38,18.33V17.2c0-2.3,1.5-3.97,4.23-3.97c2.38,0,4.02,1.47,4.07,3.54h-2.51c-0.05-0.71-0.53-1.34-1.51-1.34
		c-1.03,0-1.5,0.65-1.5,1.6v1.46c0,0.96,0.48,1.6,1.5,1.6c0.98,0,1.46-0.63,1.51-1.34h2.51c-0.05,2.07-1.69,3.54-4.07,3.54
		C272.88,22.3,271.38,20.63,271.38,18.33z"/>
	<path d="M284.48,11.1v2.33h1.67v2.15h-1.67v3.69c0,0.4,0.2,0.58,0.63,0.58h0.91v2.25h-1.84c-1.65,0-2.48-0.98-2.48-2.56v-3.95
		h-1.12v-2.15h1.12V11.1H284.48z"/>
	<path d="M295.76,18.34c0,2.28-1.52,3.95-4.22,3.95s-4.22-1.67-4.22-3.95v-1.16c0-2.28,1.52-3.95,4.22-3.95s4.22,1.67,4.22,3.95
		V18.34z M291.54,15.43c-1.06,0-1.52,0.73-1.52,1.6v1.46c0,0.88,0.46,1.6,1.52,1.6s1.52-0.73,1.52-1.6v-1.46
		C293.06,16.16,292.6,15.43,291.54,15.43z"/>
	<path d="M302.5,16.09h-0.36c-1.29,0-1.98,0.53-1.98,2.03v3.97h-2.78v-8.67h2.63v1.52c0.26-1.29,1.12-1.59,2.37-1.59h0.13V16.09z"/>
	<path d="M307.32,22.3c-2.3,0-3.82-1.03-3.82-2.78v-0.18h2.45v0.12c0,0.61,0.56,0.93,1.39,0.93c0.74,0,1.31-0.26,1.31-0.76
		c0-0.31-0.15-0.5-0.58-0.6l-2.4-0.55c-1.34-0.3-2.03-1.11-2.03-2.33c0-1.87,1.49-2.91,3.59-2.91c2.05,0,3.52,1.06,3.52,2.8v0.15
		h-2.4v-0.15c0-0.53-0.31-0.88-1.09-0.88c-0.71,0-1.04,0.23-1.04,0.71c0,0.33,0.17,0.5,0.55,0.58l2.53,0.61
		c1.17,0.28,1.9,1.03,1.9,2.22C311.19,21.01,309.63,22.3,307.32,22.3z"/>
	<path d="M220.41,34.14v-0.35c0-2.4,1.57-3.66,4.05-3.66c2.5,0,4.17,1.39,4.17,3.54c0,1.79-1.21,2.88-2.46,3.94l-2.4,2.04h4.75v2.3
		h-8.22v-2.13l4.56-4.37c0.6-0.58,0.96-1.09,0.96-1.75c0-0.81-0.56-1.26-1.34-1.26c-0.94,0-1.37,0.56-1.37,1.49v0.21H220.41z"/>
	<path d="M230.16,38.04v-3.77c0-2.46,1.82-4.13,4.53-4.13s4.53,1.67,4.53,4.13v3.77c0,2.46-1.82,4.13-4.53,4.13
		S230.16,40.51,230.16,38.04z M234.7,32.43c-1.04,0-1.72,0.56-1.72,1.84v3.77c0,1.27,0.68,1.84,1.72,1.84s1.72-0.56,1.72-1.84v-3.77
		C236.42,33,235.74,32.43,234.7,32.43z"/>
	<path d="M241,34.14v-0.35c0-2.4,1.57-3.66,4.05-3.66c2.5,0,4.17,1.39,4.17,3.54c0,1.79-1.21,2.88-2.46,3.94l-2.4,2.04h4.75v2.3
		h-8.22v-2.13l4.57-4.37c0.59-0.58,0.96-1.09,0.96-1.75c0-0.81-0.56-1.26-1.34-1.26c-0.94,0-1.37,0.56-1.37,1.49v0.21H241z"/>
	<path d="M251.02,34.14v-0.35c0-2.4,1.57-3.66,4.05-3.66c2.5,0,4.17,1.39,4.17,3.54c0,1.79-1.21,2.88-2.46,3.94l-2.4,2.04h4.75v2.3
		h-8.22v-2.13l4.56-4.37c0.6-0.58,0.96-1.09,0.96-1.75c0-0.81-0.56-1.26-1.34-1.26c-0.94,0-1.37,0.56-1.37,1.49v0.21H251.02z"/>
	<path d="M261.22,39.46h3.16l-1.67,4.75h-2.35L261.22,39.46z"/>
	<path d="M269.44,34.14v-0.35c0-2.4,1.57-3.66,4.05-3.66c2.5,0,4.17,1.39,4.17,3.54c0,1.79-1.21,2.88-2.46,3.94l-2.4,2.04h4.75v2.3
		h-8.22v-2.13l4.57-4.37c0.59-0.58,0.96-1.09,0.96-1.75c0-0.81-0.56-1.26-1.34-1.26c-0.94,0-1.37,0.56-1.37,1.49v0.21H269.44z"/>
	<path d="M279.2,38.04v-3.77c0-2.46,1.82-4.13,4.53-4.13s4.53,1.67,4.53,4.13v3.77c0,2.46-1.82,4.13-4.53,4.13
		S279.2,40.51,279.2,38.04z M283.73,32.43c-1.04,0-1.72,0.56-1.72,1.84v3.77c0,1.27,0.68,1.84,1.72,1.84s1.72-0.56,1.72-1.84v-3.77
		C285.45,33,284.77,32.43,283.73,32.43z"/>
	<path d="M290.03,34.14v-0.35c0-2.4,1.57-3.66,4.05-3.66c2.5,0,4.17,1.39,4.17,3.54c0,1.79-1.21,2.88-2.46,3.94l-2.4,2.04h4.75v2.3
		h-8.22v-2.13l4.56-4.37c0.6-0.58,0.96-1.09,0.96-1.75c0-0.81-0.56-1.26-1.34-1.26c-0.94,0-1.37,0.56-1.37,1.49v0.21H290.03z"/>
	<path d="M300.44,30.37h7.56v2.27l-2.56,2.4c1.59,0.25,3.08,1.21,3.08,3.39c0,2.18-1.98,3.75-4.43,3.75c-2.37,0-4.27-1.26-4.3-3.75
		h2.63c0.05,0.91,0.68,1.51,1.69,1.51c1.03,0,1.64-0.63,1.64-1.42c0-0.86-0.53-1.39-1.65-1.39h-1.75v-2.2l2.25-2.3h-4.13V30.37z"/>
</g>
</svg>
