<svg id="Layer_1" data-name="Layer 1" xmlns="http://www.w3.org/2000/svg" xmlns:xlink="http://www.w3.org/1999/xlink" viewBox="0 0 387 70"><defs><style>.cls-1{fill:#113b51;}.cls-2{fill:url(#linear-gradient);}</style><linearGradient id="linear-gradient" x1="48.87" y1="55.45" x2="48.87" y2="10.41" gradientUnits="userSpaceOnUse"><stop offset="0" stop-color="#60bc6b"/><stop offset="1" stop-color="#41a4a6"/></linearGradient></defs><path class="cls-1" d="M110.12,16c0-6.15,4.63-10.31,10.64-10.31a9,9,0,0,1,8.31,4.87l-3.65,1.8a5.37,5.37,0,0,0-4.66-2.9A6.21,6.21,0,0,0,114.48,16a6.22,6.22,0,0,0,6.28,6.55,5.37,5.37,0,0,0,4.66-2.9l3.65,1.77a9.12,9.12,0,0,1-8.31,4.9C114.75,26.35,110.12,22.16,110.12,16Z"/><path class="cls-1" d="M145.18,26l-1.25-3.38h-8.55L134.12,26h-4.81L137,6.05h5.33L150,26ZM139.65,10.3l-3.1,8.57h6.21Z"/><path class="cls-1" d="M150.27,23.18l2.33-3.32a8.76,8.76,0,0,0,6.34,2.72c2.36,0,3.47-1,3.47-2.21,0-3.47-11.48-1.05-11.48-8.55,0-3.32,2.87-6.07,7.56-6.07a11.09,11.09,0,0,1,7.77,2.78L163.9,11.7a8.58,8.58,0,0,0-5.8-2.18c-1.79,0-2.81.78-2.81,2,0,3.14,11.45,1,11.45,8.46,0,3.65-2.63,6.4-8,6.4A11.52,11.52,0,0,1,150.27,23.18Z"/><path class="cls-1" d="M173.8,26V9.79H168V6.05h15.9V9.79h-5.8V26Z"/><path class="cls-1" d="M186.41,26V6.05h4.28v16.2h8.43V26Z"/><path class="cls-1" d="M202,26V6.05H216.1V9.79h-9.87V14h9.66v3.74h-9.66v4.54h9.87V26Z"/><path class="cls-1" d="M226.14,16c0-6.15,4.64-10.31,10.65-10.31a9.07,9.07,0,0,1,8.31,4.87l-3.65,1.8a5.38,5.38,0,0,0-4.66-2.9A6.21,6.21,0,0,0,230.51,16a6.22,6.22,0,0,0,6.28,6.55,5.38,5.38,0,0,0,4.66-2.9l3.65,1.77a9.14,9.14,0,0,1-8.31,4.9C230.78,26.35,226.14,22.16,226.14,16Z"/><path class="cls-1" d="M246.68,16a10.42,10.42,0,0,1,20.84,0,10.42,10.42,0,0,1-20.84,0Zm16.47,0c0-3.73-2.36-6.54-6-6.54s-6.06,2.81-6.06,6.54,2.36,6.55,6.06,6.55S263.15,19.74,263.15,16Z"/><path class="cls-1" d="M284.26,26l-9.51-13V26h-4.24V6.05h4.36l9.24,12.53V6.05h4.24V26Z"/><path class="cls-1" d="M306.05,26l-9.5-13V26H292.3V6.05h4.37l9.23,12.53V6.05h4.25V26Z"/><path class="cls-1" d="M313.14,16A10.42,10.42,0,0,1,334,16a10.42,10.42,0,0,1-20.83,0Zm16.47,0c0-3.73-2.36-6.54-6-6.54S317.5,12.3,317.5,16s2.37,6.55,6.07,6.55S329.61,19.74,329.61,16Z"/><path class="cls-1" d="M336.79,26V6.05h4.27v16.2h8.43V26Z"/><path class="cls-1" d="M352.18,26V6.05h4.28v16.2h8.43V26Z"/><path class="cls-1" d="M369.52,26V17.83L361.87,6.05h4.84l4.93,8,4.94-8h4.81l-7.62,11.78V26Z"/><path class="cls-1" d="M133.62,35.47H123.05V63.74h-1.79V35.52H110.69V33.9h22.93Z"/><path class="cls-1" d="M160.77,49c0,9.27-5.73,15.45-14.25,15.45s-14.11-6.27-14.11-15.63,5.74-15.68,14.11-15.68S160.77,39.64,160.77,49Zm-26.52-.27c0,8.47,4.93,14.16,12.27,14.16S158.93,57.24,158.93,49s-5.06-14.2-12.41-14.2S134.25,40.49,134.25,48.73Z"/><path class="cls-1" d="M175.59,33.9c3.14,0,4.84.36,6.36,1.39a7.84,7.84,0,0,1,3.36,6.86c0,5.24-3.45,8.37-9.22,8.37H165.78V63.74H164V33.9ZM165.78,49h9.28c2.82,0,4-.17,5.33-1a6.21,6.21,0,0,0,3.13-5.73,6.39,6.39,0,0,0-2.69-5.6c-1.29-.9-2.59-1.17-5.55-1.17h-9.5Z"/><path class="cls-1" d="M205.74,33.9c4.16,0,7,.94,9.36,3.09,2.73,2.51,4.26,6.59,4.26,11.34,0,5.24-1.44,9.27-4.22,12.05-2.37,2.42-5.1,3.36-9.36,3.36H195.66V33.9ZM197.5,62.12h7.7c4.75.05,7.3-1,9.5-3.76,1.92-2.37,2.82-5.55,2.82-9.85,0-4.89-1.43-8.51-4.26-10.8-1.92-1.57-4.21-2.24-7.61-2.24H197.5Z"/><path class="cls-1" d="M250.67,49c0,9.27-5.74,15.45-14.25,15.45s-14.11-6.27-14.11-15.63S228,33.14,236.42,33.14,250.67,39.64,250.67,49Zm-26.52-.27c0,8.47,4.92,14.16,12.27,14.16S248.83,57.24,248.83,49s-5.06-14.2-12.41-14.2S224.15,40.49,224.15,48.73Z"/><path class="cls-1" d="M267.33,64.36c-8.25,0-13.71-6.13-13.71-15.45s5.6-15.72,13.89-15.72c6.4,0,11.6,4.07,12.27,9.67H278c-1.12-5-5.15-8.06-10.61-8.06-7.17,0-12,5.64-12,14.06s4.75,14,11.92,14c6.13,0,10.39-4,11.15-10.66h1.75C279.65,59.48,274.41,64.36,267.33,64.36Z"/><path class="cls-1" d="M302.94,35.47H292.37V63.74h-1.8V35.52H280V33.9h22.94Z"/><path class="cls-1" d="M330.08,49c0,9.27-5.73,15.45-14.24,15.45s-14.11-6.27-14.11-15.63,5.73-15.68,14.11-15.68S330.08,39.64,330.08,49Zm-26.52-.27c0,8.47,4.93,14.16,12.28,14.16s12.4-5.65,12.4-13.94-5.06-14.2-12.4-14.2S303.56,40.49,303.56,48.73Z"/><path class="cls-1" d="M345.49,33.9c4,0,6.36.9,8,3.05A7.74,7.74,0,0,1,355,41.83c0,3.94-2.33,6.68-6.36,7.48,2.42.36,3.67,1,4.66,2.47s1,2.24,1.25,7c.14,2.42.36,4.08.72,4.62l.22.36h-2c-.41-.63-.54-1.53-.63-4.62-.22-5.06-.58-6.4-2.11-7.61-1.34-1.08-3.09-1.48-6.49-1.48H335V63.74h-1.84V33.9ZM335,48.51h9c3,0,4.93-.32,6.36-1.17a6,6,0,0,0,2.82-5.42,5.82,5.82,0,0,0-2.73-5.33c-1.3-.81-3-1.16-5.6-1.16H335Z"/><path class="cls-1" d="M378.19,42.37c-.27-3.23-1.39-5.06-3.77-6.32a12.43,12.43,0,0,0-5.68-1.21c-5.29,0-8.38,2.33-8.38,6.28a4.73,4.73,0,0,0,2.06,4.16c1.25.76,2.55,1.21,6.23,2.06l2.24.49c4.07,1,5.42,1.44,6.85,2.33a6.4,6.4,0,0,1,3,5.69c0,5.33-4.21,8.47-11.24,8.47-7.66,0-11.78-3.58-11.83-10.44h1.75c0,5.87,3.58,9,10.17,9,5.87,0,9.36-2.6,9.36-6.9a5.14,5.14,0,0,0-3.05-4.84c-1.39-.67-2.28-.94-7-2s-6.09-1.56-7.61-2.55a6.1,6.1,0,0,1-2.73-5.46c0-4.84,3.89-7.84,10.26-7.84,4.07,0,7.3,1.21,9.18,3.49a8.52,8.52,0,0,1,1.92,5.6Z"/><rect class="cls-1" x="1" y="61.51" width="95.88" height="2.7"/><rect class="cls-1" x="1" y="5.24" width="95.88" height="2.7"/><path class="cls-2" d="M33.77,19.06a9.32,9.32,0,0,1-2.14-.86A2.63,2.63,0,0,1,30.72,17a16.24,16.24,0,0,1-1.94-1.48c-.59-.53-.89-1-.89-1.35s.14-.45.41-.45a.86.86,0,0,1,.59.23,3.24,3.24,0,0,0,1.12.45,13.52,13.52,0,0,0,2.71.18l2.82,0,6.33-.23a12.81,12.81,0,0,1,2.74.21,3,3,0,0,1,1.45.79A2.84,2.84,0,0,1,46.52,17a7.37,7.37,0,0,0,.25,1.43,1.3,1.3,0,0,0,.71.8v-4a3.91,3.91,0,0,1-.94-1A2.38,2.38,0,0,1,46.25,13a2.36,2.36,0,0,1,.82-1.89,3,3,0,0,1,2-.71,2.9,2.9,0,0,1,2,.66,2.17,2.17,0,0,1,.78,1.75,2.4,2.4,0,0,1-.37,1.35,4.32,4.32,0,0,1-1,1.07l.05,4a.79.79,0,0,0,.57-.5,5,5,0,0,0,.16-1,9.93,9.93,0,0,1,.22-1.3,2.11,2.11,0,0,1,.64-1,3.55,3.55,0,0,1,1.53-.82,10.8,10.8,0,0,1,2.53-.23l1,0c.37,0,1,0,1.92.11l6.28.46a10.85,10.85,0,0,0,2.21-.19,11.16,11.16,0,0,0,1.57-.45,1.56,1.56,0,0,1,.41-.14c.15,0,.23.21.23.64a1.57,1.57,0,0,1-.46,1.23,13.43,13.43,0,0,1-2.14,1.32l-.22.09a2.25,2.25,0,0,1-.44,1.18,5.31,5.31,0,0,1-1.8,1.05,4,4,0,0,1-.47,1.12,1.83,1.83,0,0,1-.76.57,2.54,2.54,0,0,1-.82.27,4.56,4.56,0,0,0-1.23.36,2.25,2.25,0,0,1-.93,1.33,7.8,7.8,0,0,1-2.66.68,2.72,2.72,0,0,1-1.14,1.16,4,4,0,0,1-2.19.2l-4.23-.59-.14,7.79c.76-.09,1.31-.17,1.66-.25a6.36,6.36,0,0,0,1-.3,6.94,6.94,0,0,0,1.27-.77c.46-.33.68-.56.68-.68s-.27-.25-.82-.46a7.89,7.89,0,0,1-1.68-.86,1.44,1.44,0,0,1-.64-1.23c0-.46.32-.88,1-1.28A4.48,4.48,0,0,1,55,26.26a3.66,3.66,0,0,1,2.64,1,3.51,3.51,0,0,1,1,2.68,4.31,4.31,0,0,1-1,2.83,13.29,13.29,0,0,1-3.16,2.55,6.63,6.63,0,0,1,.57,1.27,4.51,4.51,0,0,1,.15,1.19A4.27,4.27,0,0,1,54.65,40a4.15,4.15,0,0,1-1.53,1.53,3.14,3.14,0,0,1,.78,2.27,3.39,3.39,0,0,1-.43,1.58A5.11,5.11,0,0,1,52.3,46.8c.59.57.72.82.78,1.14a3.85,3.85,0,0,1-.16,1.84A6.54,6.54,0,0,1,52.37,51a3.45,3.45,0,0,1-.82,1,1.59,1.59,0,0,1-1,.39c-.34,0-.5-.12-.5-.37a1.43,1.43,0,0,1,.18-.5,2.87,2.87,0,0,0,.41-1.23,1.5,1.5,0,0,0-.73-1.18l-.14,4.28v0a10.84,10.84,0,0,1-.13,1.73c-.06.21-.23.31-.5.31s-.59-.12-.66-.36a7.7,7.7,0,0,1-.16-1.64v-.09l-.14-4.78-.23-.09a4.4,4.4,0,0,0-.45,1.59,3.71,3.71,0,0,0,.27,1.23,2.23,2.23,0,0,1,.14.59c0,.31-.19.46-.55.46A1.66,1.66,0,0,1,46,51.42a3.39,3.39,0,0,1-.59-1.8,8.11,8.11,0,0,1,.41-2.09,6,6,0,0,1-1.39-1.39A2.88,2.88,0,0,1,44,44.52a4,4,0,0,1,.18-1.18,9,9,0,0,1,.78-1.64,6.43,6.43,0,0,1-1.8-1.55,3.1,3.1,0,0,1-.62-1.91,4.23,4.23,0,0,1,.25-1.53,8,8,0,0,1,.75-1.43l0-.05a7.36,7.36,0,0,1-3.28-2.34,4.41,4.41,0,0,1-.91-2.62,3.69,3.69,0,0,1,1.23-2.8,4.36,4.36,0,0,1,3.14-1.17,3.54,3.54,0,0,1,2,.55,1.64,1.64,0,0,1,.82,1.41,1.74,1.74,0,0,1-.61,1.53,5.27,5.27,0,0,1-1.66.71c-.61.12-.91.27-.91.45,0,.43.48.78,1.45,1.07a15.06,15.06,0,0,0,3.06.57l-.14-7.7-4,.46a5.61,5.61,0,0,1-2.21-.3,2.63,2.63,0,0,1-1.11-1.34,7.46,7.46,0,0,1-3-.62,1.66,1.66,0,0,1-.82-1.57l-.14,0a10.27,10.27,0,0,1-1.8-.8C34,20.26,33.61,19.37,33.77,19.06Zm1.55-3.6h-.87c-.55,0-2,0-4.46-.13a4.22,4.22,0,0,0,2,1.07,21.75,21.75,0,0,0,4,.25l6.29,0h.36a1.76,1.76,0,0,1,1.51.53,4.48,4.48,0,0,1,.59,1.57,5.29,5.29,0,0,0,.73,2,2.9,2.9,0,0,0,2,1V20.29a2.33,2.33,0,0,1-1.39-1,5.35,5.35,0,0,1-.48-1.68,10.38,10.38,0,0,0-.25-1.07,1,1,0,0,0-.47-.62,3.65,3.65,0,0,0-1.58-.41c-.71-.06-2-.09-3.8-.09Zm5.23,2.15-2,0-2.12.05c-.45,0-.89,0-1.32-.05s-1-.07-1.73-.14l-.82,0a3.59,3.59,0,0,0,1.53,1,13.39,13.39,0,0,0,2.85.2l7-.09a1.45,1.45,0,0,0-.43-.75,1.59,1.59,0,0,0-1-.25Zm2.14,1.82c-1.18,0-2.06,0-2.64,0-2.43,0-4.14,0-5.14,0a2.1,2.1,0,0,0,1.32,1.05,15.57,15.57,0,0,0,3.28.22l4.82-.41-.27-.91C43.57,19.38,43.12,19.4,42.69,19.43Zm0,3.28c1.27-.09,2.37-.2,3.28-.32l-1-1.14-7.2.64a1.75,1.75,0,0,0,.84.77,5.11,5.11,0,0,0,1.62.18C40.55,22.84,41.37,22.8,42.65,22.71ZM41,28.49a3,3,0,0,0-.66,1.78,3.3,3.3,0,0,0,.59,2,4.46,4.46,0,0,0,1.6,1.32,11,11,0,0,0,2.07.79c.71.2,1.65.42,2.8.66a23.11,23.11,0,0,1,3.76,1.07,1.73,1.73,0,0,1,1.21,1.62A2,2,0,0,1,52,39a4.32,4.32,0,0,1-1.28.93l1.78.87a7.51,7.51,0,0,0,1.43-1.55,2.82,2.82,0,0,0,.39-1.5A2.76,2.76,0,0,0,53.76,36a4.16,4.16,0,0,0-1.48-1.16,12.15,12.15,0,0,0-1.93-.73c-.67-.18-1.57-.38-2.69-.59a22.89,22.89,0,0,1-4.17-1.18,1.47,1.47,0,0,1-1-1.83c.07-.49.57-.71,1.39-1,.45-.16,1.66-.31,1.73-1s-.65-1.14-1.69-1.26A3.44,3.44,0,0,0,41,28.49ZM47.2,23c-1.42.24-2.46.39-3.12.46s-1.51.12-2.57.18a1.64,1.64,0,0,0,.61.52,2.49,2.49,0,0,0,1,.16A14.5,14.5,0,0,0,46,24l1.64-.28ZM45.68,37.21a4.89,4.89,0,0,1,.85-1.2l-1.74-.41A4.1,4.1,0,0,0,44,36.69,2.79,2.79,0,0,0,43.7,38a3.18,3.18,0,0,0,.41,1.69,3.1,3.1,0,0,0,1.07,1.09,5.61,5.61,0,0,0,1.41.64,15.34,15.34,0,0,0,1.8.41,11.36,11.36,0,0,1,2.25.71,1.12,1.12,0,0,1,.71,1.07,4.24,4.24,0,0,1-1,2.09l1.5.67a6.12,6.12,0,0,0,1.23-2.76,2.25,2.25,0,0,0-1.07-2,14.57,14.57,0,0,0-3.17-1.36,14.66,14.66,0,0,1-2.5-1,1.38,1.38,0,0,1-.82-1.27A1.84,1.84,0,0,1,45.68,37.21Zm1.43,5.26-1.41-.36a9.33,9.33,0,0,0-.57,1.27A3.7,3.7,0,0,0,45,44.52a2.2,2.2,0,0,0,.84,1.92,9.11,9.11,0,0,0,2.49,1.09,9.92,9.92,0,0,1,2.23,1,1.82,1.82,0,0,1,.73,1.57c0,.49-.06,1.3-.5,1.59.22,0,.94-.85,1.09-1.14a3.9,3.9,0,0,0,.32-1.41,2.16,2.16,0,0,0-.8-1.86,10.24,10.24,0,0,0-2.3-1.19,9.23,9.23,0,0,1-1.84-.86A1.4,1.4,0,0,1,46.61,44,3.18,3.18,0,0,1,47.11,42.47Zm.18,5.79-.82-.32a1.93,1.93,0,0,0-.31.68,2,2,0,0,0-.14.82,2.43,2.43,0,0,0,.29,1.23,3.61,3.61,0,0,0,.94,1,3.6,3.6,0,0,1-.37-1.41A5.85,5.85,0,0,1,47.29,48.26ZM47.93,39l-.18-2.74a4.2,4.2,0,0,0-.87.78,1.21,1.21,0,0,0-.22.73C46.66,38.22,47.08,38.63,47.93,39Zm2.83-26a1.45,1.45,0,0,0-.51-1.14A1.72,1.72,0,0,0,49,11.41a1.79,1.79,0,0,0-1.18.43,1.38,1.38,0,0,0-.5,1.07c0,1,.61,1.55,1.82,1.55S50.76,14,50.76,13ZM48.07,44.8,48,42.93a.89.89,0,0,0-.59.86A1,1,0,0,0,48.07,44.8Zm1.64-29.56H48.48l.13,17.44.92.14Zm-.37,21.22-.68-.13.05,2.73.63.27Zm-.09,6.42-.5-.09,0,2.33.45.23Zm.09,6-.54-.24,0,6.11h.37ZM50,43.25v1.64c.46-.46.68-.81.68-1C50.66,43.45,50.44,43.25,50,43.25Zm.18-6.65,0,2.64a2,2,0,0,0,.86-.57,1.41,1.41,0,0,0,.41-1Q51.39,36.91,50.16,36.6ZM53,16.08a4.42,4.42,0,0,0-.88,2.07,5.21,5.21,0,0,1-.48,1.53,1.59,1.59,0,0,1-1.12.7l0,1.23a3.32,3.32,0,0,0,2-1,4.75,4.75,0,0,0,.8-1.77A3.31,3.31,0,0,1,54,17.31a2.72,2.72,0,0,1,1.89-.48q.74,0,2.64.18c1.89.16,3.4.23,4.56.23A13.11,13.11,0,0,0,67,16.83a3.63,3.63,0,0,0,1.87-1.41,14.83,14.83,0,0,1-1.8.41,20.93,20.93,0,0,1-2.39.09l-9.11-.55A3.44,3.44,0,0,0,53,16.08Zm3.28,8.46a1.18,1.18,0,0,0,.66-.65c-.24,0-.63,0-1.18-.09l-5.28-.55V24l2.8.43C54.58,24.58,55.37,24.88,56.24,24.54ZM59.55,22l-2.78-.16c-.85,0-2.1-.14-3.74-.29l-2.18.77c1.27.22,2.46.38,3.55.5a28.44,28.44,0,0,0,3.1.19,5.6,5.6,0,0,0,1.82-.21,2.18,2.18,0,0,0,1-.75Zm-4.4,7.82c.41.31.66.39.65.73,0,.55-.38,1-1.17,1.56a9.37,9.37,0,0,1-2.78,1.37l2,1a5.72,5.72,0,0,0,2.66-1.82,4.64,4.64,0,0,0,1.12-3.1,2.64,2.64,0,0,0-.62-1.8,2.22,2.22,0,0,0-1.48-.8,4.23,4.23,0,0,0-2,.44c-.56.3-.82.91-.54,1.14A9.74,9.74,0,0,0,55.15,29.84Zm3.62-9.78c-1-.06-1.84-.09-2.53-.11l-2.48-.07-.41.87,5.33.27a20.82,20.82,0,0,0,3.53-.18A2.67,2.67,0,0,0,63.6,20l-1.55,0c-.64,0-1.06.05-1.27.05C60.32,20.11,59.65,20.1,58.77,20.06Zm.78-2.16c-1.25-.07-2.48-.16-3.69-.25l-.55,0a1.3,1.3,0,0,0-.91.25,1.43,1.43,0,0,0-.37.84l7.93.36a10.42,10.42,0,0,0,2.82-.27A1.89,1.89,0,0,0,66,17.92c-1,.07-2.1.1-3.19.1C61.87,18,60.79,18,59.55,17.9Z"/><path class="cls-1" d="M72.19,52.81a19.4,19.4,0,0,1-7.41-7.25,20.11,20.11,0,0,1-2.71-10.39,20.1,20.1,0,0,1,2.71-10.38,19.4,19.4,0,0,1,7.41-7.25,21.38,21.38,0,0,1,10.59-2.62,22.24,22.24,0,0,1,8,1.39A16.54,16.54,0,0,1,97,20.45l-1.83,1.88A16.73,16.73,0,0,0,82.89,17.6a18.52,18.52,0,0,0-9.13,2.28,16.69,16.69,0,0,0-6.44,6.31,17.51,17.51,0,0,0-2.34,9,17.55,17.55,0,0,0,2.34,9,16.83,16.83,0,0,0,6.44,6.31,18.52,18.52,0,0,0,9.13,2.28A16.74,16.74,0,0,0,95.16,48L97,49.84A16.78,16.78,0,0,1,90.74,54a21.65,21.65,0,0,1-8,1.43A21.38,21.38,0,0,1,72.19,52.81Z"/><path class="cls-1" d="M16.08,55.43a21.61,21.61,0,0,1-8-1.43,16.7,16.7,0,0,1-6.25-4.16L3.69,48A16.77,16.77,0,0,0,16,52.75a18.49,18.49,0,0,0,9.13-2.28,16.78,16.78,0,0,0,6.45-6.31,17.55,17.55,0,0,0,2.34-9,17.51,17.51,0,0,0-2.34-9,16.65,16.65,0,0,0-6.45-6.31A18.49,18.49,0,0,0,16,17.6,16.76,16.76,0,0,0,3.69,22.33L1.87,20.45a16.46,16.46,0,0,1,6.22-4.14,22.2,22.2,0,0,1,8-1.39,21.34,21.34,0,0,1,10.58,2.62,19.43,19.43,0,0,1,7.42,7.25,20.1,20.1,0,0,1,2.71,10.38,20.11,20.11,0,0,1-2.71,10.39,19.43,19.43,0,0,1-7.42,7.25A21.34,21.34,0,0,1,16.08,55.43Z"/><path class="cls-1" d="M383,39.22A2.9,2.9,0,0,1,381.8,39a3.24,3.24,0,0,1-1-.65,3.32,3.32,0,0,1-.65-1,3,3,0,0,1-.24-1.19,2.92,2.92,0,0,1,.24-1.17,3.07,3.07,0,0,1,.65-1,3.24,3.24,0,0,1,1-.65,3,3,0,0,1,2.35,0,3.24,3.24,0,0,1,1,.65,2.89,2.89,0,0,1,.64,1,2.92,2.92,0,0,1,.24,1.17,3,3,0,0,1-.24,1.19,3.1,3.1,0,0,1-.64,1,3.24,3.24,0,0,1-1,.65A2.88,2.88,0,0,1,383,39.22Zm0-.4a2.61,2.61,0,0,0,1-.2,2.56,2.56,0,0,0,.8-.56,2.79,2.79,0,0,0,.53-.84,2.91,2.91,0,0,0,0-2.07,2.74,2.74,0,0,0-.53-.83,2.38,2.38,0,0,0-.8-.55,2.58,2.58,0,0,0-2,0,2.33,2.33,0,0,0-.81.55,2.59,2.59,0,0,0-.54.83,2.91,2.91,0,0,0,0,2.07,2.63,2.63,0,0,0,.54.84,2.49,2.49,0,0,0,.81.56A2.61,2.61,0,0,0,383,38.82Zm1.51-.94H384l-1-1.56h-.76v1.56h-.42V34.5h1.48a1.42,1.42,0,0,1,.94.24.86.86,0,0,1,.26.65,1.1,1.1,0,0,1-.08.43.76.76,0,0,1-.22.28,1.19,1.19,0,0,1-.34.16,2.65,2.65,0,0,1-.42.06ZM382.9,36h.38a1.23,1.23,0,0,0,.39-.05.64.64,0,0,0,.3-.17.62.62,0,0,0,.11-.39.57.57,0,0,0-.07-.31.49.49,0,0,0-.2-.18,1.07,1.07,0,0,0-.27-.08l-.31,0h-1V36Z"/></svg>